<svg width="36" height="30" viewBox="0 0 36 30" fill="none" xmlns="http://www.w3.org/2000/svg">
<path d="M34.0834 9.9182C33.5461 9.8047 32.9857 9.90106 32.5172 10.1875C32.0487 10.474 31.7075 10.9288 31.5636 11.4588C31.178 12.8327 30.3074 14.0203 29.1131 14.8014C27.9189 15.5825 26.482 15.9042 25.0687 15.7068C23.6554 15.5095 22.3615 14.8065 21.4269 13.7282C20.4923 12.6498 19.9803 11.2692 19.9858 9.84223C19.981 9.06715 20.1303 8.29884 20.4248 7.58189C20.7193 6.86493 21.1533 6.21361 21.7015 5.66569C22.4148 4.95163 23.299 4.43213 24.2699 4.15673C24.7999 4.01284 25.2548 3.67164 25.5412 3.2031C25.8277 2.73457 25.924 2.17419 25.8105 1.63688C25.7467 1.35964 25.6275 1.09817 25.46 0.868181C25.2926 0.638194 25.0803 0.444439 24.8361 0.298561C24.5918 0.152683 24.3206 0.0576946 24.0387 0.0193038C23.7568 -0.0190871 23.4701 -8.72174e-05 23.1957 0.0751614C22.1442 0.366535 21.1466 0.825457 20.2411 1.43428L20.2074 1.45749C19.5076 1.94543 18.6731 2.20299 17.8201 2.19429C16.9671 2.18559 16.138 1.91106 15.4483 1.40895L15.3597 1.34986C14.485 0.784465 13.5282 0.357359 12.5233 0.0836031C12.2502 0.00986614 11.9651 -0.00821854 11.6849 0.0304238C11.4046 0.0690662 11.135 0.163647 10.8921 0.308545C10.6492 0.453443 10.4378 0.645701 10.2707 0.873893C10.1035 1.10209 9.98392 1.36155 9.91902 1.63688C9.80605 2.17415 9.90263 2.73428 10.189 3.20269C10.4754 3.6711 10.9299 4.01239 11.4596 4.15673C12.4313 4.4318 13.3163 4.95132 14.0301 5.66569C14.6716 6.30506 15.1575 7.08332 15.4503 7.94035C15.7431 8.79739 15.835 9.71025 15.7189 10.6084C15.6027 11.5066 15.2817 12.3661 14.7806 13.1205C14.2795 13.8749 13.6116 14.504 12.8287 14.9593C12.0458 15.4145 11.1686 15.6837 10.2651 15.746C9.3616 15.8084 8.45584 15.6622 7.6178 15.3188C6.77976 14.9754 6.03187 14.4439 5.43189 13.7655C4.83192 13.0871 4.39591 12.2798 4.15755 11.4061C4.00922 10.8648 3.65196 10.4046 3.16436 10.1268C2.67676 9.84897 2.09875 9.77621 1.5575 9.92453C1.01625 10.0729 0.556093 10.4301 0.278254 10.9177C0.000415352 11.4053 -0.0723444 11.9833 0.0759816 12.5246C0.458633 13.9163 1.13429 15.2103 2.0577 16.3197C2.9811 17.4291 4.13092 18.3283 5.43014 18.9572C6.18663 19.3119 6.8164 19.8898 7.2348 20.613C7.6532 21.3362 7.84018 22.1702 7.7706 23.0029C7.74528 23.2941 7.73262 23.5896 7.73262 23.8871C7.73318 25.6438 8.18987 27.3701 9.05797 28.8973C9.20068 29.1482 9.39335 29.3672 9.62408 29.5407C9.85481 29.7142 10.1187 29.8386 10.3994 29.906C10.6801 29.9735 10.9716 29.9826 11.256 29.9329C11.5404 29.8832 11.8115 29.7756 12.0527 29.6169C12.499 29.3099 12.8134 28.8462 12.9335 28.3179C13.0535 27.7896 12.9704 27.2355 12.7006 26.7658C12.1982 25.8664 11.9397 24.8513 11.9506 23.8212C11.9616 22.7911 12.2417 21.7817 12.7631 20.8932C13.2845 20.0048 14.0291 19.268 14.9231 18.7561C15.8171 18.2442 16.8293 17.9749 17.8595 17.9749C18.8897 17.9749 19.902 18.2442 20.7959 18.7561C21.6899 19.268 22.4345 20.0048 22.9559 20.8932C23.4773 21.7817 23.7574 22.7911 23.7684 23.8212C23.7793 24.8513 23.5208 25.8664 23.0184 26.7658C22.7534 27.2269 22.6686 27.7698 22.7805 28.2898C22.8924 28.8097 23.1929 29.2698 23.6241 29.5811C23.8648 29.7485 24.1377 29.8639 24.4254 29.92C24.7131 29.9761 25.0094 29.9717 25.2953 29.9069C25.5812 29.8422 25.8505 29.7186 26.086 29.5441C26.3215 29.3695 26.5181 29.1478 26.6632 28.8931C27.5313 27.3659 27.9879 25.6395 27.9885 23.8829C27.9885 23.5853 27.9758 23.2899 27.9505 22.9986C27.882 22.167 28.0692 21.3342 28.4871 20.6119C28.905 19.8896 29.5337 19.3122 30.2889 18.9572C31.3071 18.4652 32.2347 17.8044 33.0324 17.0029C34.2765 15.7616 35.1768 14.2185 35.6451 12.5246C35.7191 12.2508 35.7371 11.9649 35.6981 11.684C35.6591 11.403 35.5638 11.1329 35.418 10.8896C35.2723 10.6463 35.0789 10.4349 34.8496 10.268C34.6203 10.1011 34.3597 9.98213 34.0834 9.9182Z" fill="#E93223"/>
</svg>
