<svg width="22" height="19" viewBox="0 0 22 19" fill="none" xmlns="http://www.w3.org/2000/svg">
<g id="Group 2">
<path id="Vector" d="M6.06343 8.18496C7.23579 8.18496 8.18618 7.23457 8.18618 6.06221C8.18618 4.88984 7.23579 3.93945 6.06343 3.93945C4.89106 3.93945 3.94067 4.88984 3.94067 6.06221C3.94067 7.23457 4.89106 8.18496 6.06343 8.18496Z" fill="#E93223"/>
<path id="Vector_2" d="M15.9392 8.18496C17.1115 8.18496 18.0619 7.23457 18.0619 6.06221C18.0619 4.88984 17.1115 3.93945 15.9392 3.93945C14.7668 3.93945 13.8164 4.88984 13.8164 6.06221C13.8164 7.23457 14.7668 8.18496 15.9392 8.18496Z" fill="#E93223"/>
<path id="Vector_3" d="M11.0007 16.8334C12.173 16.8334 13.1234 15.883 13.1234 14.7106C13.1234 13.5383 12.173 12.5879 11.0007 12.5879C9.82832 12.5879 8.87793 13.5383 8.87793 14.7106C8.87793 15.883 9.82832 16.8334 11.0007 16.8334Z" fill="#E93223"/>
<path id="Vector_4" d="M20.9931 6.10908C20.6621 6.03917 20.317 6.09852 20.0284 6.27496C19.7398 6.45141 19.5296 6.73157 19.441 7.05801C19.2035 7.90427 18.6673 8.63574 17.9317 9.11686C17.1961 9.59797 16.311 9.79612 15.4405 9.67457C14.57 9.55302 13.773 9.12002 13.1974 8.45582C12.6217 7.79161 12.3063 6.94123 12.3097 6.06228C12.3068 5.58487 12.3987 5.11164 12.5801 4.67003C12.7615 4.22843 13.0288 3.82725 13.3665 3.48976C13.8058 3.04993 14.3505 2.72996 14.9485 2.56032C15.275 2.47169 15.5551 2.26153 15.7316 1.97294C15.908 1.68435 15.9674 1.33918 15.8975 1.00823C15.8581 0.837465 15.7847 0.676413 15.6815 0.534753C15.5784 0.393093 15.4477 0.273751 15.2972 0.183898C15.1468 0.0940448 14.9797 0.0355368 14.8061 0.0118901C14.6325 -0.0117566 14.4559 -5.37212e-05 14.2869 0.0462953C13.6392 0.225766 13.0247 0.508437 12.467 0.883438L12.4462 0.897737C12.0152 1.19828 11.5012 1.35692 10.9758 1.35156C10.4503 1.34621 9.93968 1.17711 9.5149 0.867839L9.4603 0.831441C8.9215 0.483188 8.33221 0.220114 7.71322 0.051495C7.54501 0.00607701 7.36939 -0.00506218 7.19679 0.0187394C7.02419 0.042541 6.85814 0.100798 6.7085 0.190047C6.55886 0.279296 6.42869 0.397717 6.32573 0.538271C6.22276 0.678825 6.1491 0.838644 6.10913 1.00823C6.03955 1.33916 6.09904 1.68417 6.27543 1.97269C6.45183 2.2612 6.7318 2.47141 7.05807 2.56032C7.65658 2.72975 8.20168 3.04974 8.64136 3.48976C9.03645 3.88358 9.33572 4.36295 9.51608 4.89083C9.69643 5.41872 9.75304 5.98099 9.68152 6.53423C9.60999 7.08747 9.41226 7.61687 9.1036 8.08154C8.79493 8.5462 8.38358 8.9337 7.90133 9.2141C7.41908 9.49451 6.87884 9.66031 6.32231 9.6987C5.76579 9.7371 5.20789 9.64705 4.6917 9.43553C4.17552 9.22401 3.71486 8.89667 3.3453 8.4788C2.97575 8.06092 2.70719 7.56369 2.56038 7.02552C2.46902 6.69213 2.24896 6.4087 1.94862 6.23757C1.64829 6.06643 1.29227 6.02162 0.958886 6.11298C0.625506 6.20434 0.342072 6.42439 0.170939 6.72473C-0.000195298 7.02507 -0.0450114 7.38109 0.0463494 7.71447C0.282042 8.57172 0.698211 9.3687 1.26698 10.052C1.83574 10.7354 2.54397 11.2892 3.34422 11.6766C3.81018 11.8951 4.19808 12.251 4.45579 12.6965C4.71351 13.142 4.82867 13.6557 4.78582 14.1685C4.77022 14.3479 4.76242 14.5299 4.76242 14.7132C4.76277 15.7952 5.04406 16.8585 5.57877 17.7992C5.66667 17.9537 5.78535 18.0886 5.92746 18.1955C6.06958 18.3024 6.23211 18.379 6.405 18.4205C6.5779 18.462 6.75748 18.4677 6.93263 18.4371C7.10779 18.4064 7.2748 18.3402 7.42334 18.2424C7.69825 18.0533 7.89193 17.7677 7.96587 17.4423C8.03981 17.1169 7.9886 16.7756 7.82241 16.4863C7.51298 15.9323 7.35375 15.3071 7.3605 14.6726C7.36726 14.0381 7.53977 13.4164 7.86092 12.8691C8.18208 12.3219 8.64073 11.8681 9.19137 11.5528C9.74201 11.2374 10.3655 11.0716 11 11.0716C11.6346 11.0716 12.2581 11.2374 12.8087 11.5528C13.3594 11.8681 13.818 12.3219 14.1392 12.8691C14.4603 13.4164 14.6328 14.0381 14.6396 14.6726C14.6463 15.3071 14.4871 15.9323 14.1777 16.4863C14.0144 16.7703 13.9622 17.1047 14.0311 17.425C14.1 17.7452 14.2851 18.0286 14.5507 18.2203C14.699 18.3235 14.8671 18.3946 15.0443 18.4291C15.2215 18.4637 15.404 18.4609 15.5801 18.4211C15.7562 18.3812 15.9221 18.3051 16.0671 18.1976C16.2122 18.09 16.3333 17.9535 16.4226 17.7966C16.9573 16.8559 17.2386 15.7926 17.239 14.7106C17.239 14.5273 17.2312 14.3453 17.2156 14.1659C17.1733 13.6537 17.2887 13.1407 17.5461 12.6958C17.8035 12.2509 18.1907 11.8953 18.6559 11.6766C19.283 11.3735 19.8544 10.9666 20.3457 10.4729C21.112 9.70832 21.6666 8.75781 21.955 7.71447C22.0006 7.54582 22.0117 7.36972 21.9876 7.19669C21.9636 7.02366 21.9049 6.85725 21.8152 6.7074C21.7254 6.55755 21.6063 6.42733 21.4651 6.32453C21.3238 6.22173 21.1633 6.14846 20.9931 6.10908Z" fill="#E93223"/>
</g>
</svg>
