<svg width="40" height="40" viewBox="0 0 40 40" fill="none" xmlns="http://www.w3.org/2000/svg">
<circle cx="20" cy="20" r="20" fill="#29E33C" fill-opacity="0.05"/>
<g clip-path="url(#clip0_5431_6477)">
<path d="M25.25 11H14.75C13.7558 11.0012 12.8027 11.3967 12.0997 12.0997C11.3967 12.8027 11.0012 13.7558 11 14.75L11 25.25C11.0012 26.2442 11.3967 27.1973 12.0997 27.9003C12.8027 28.6033 13.7558 28.9988 14.75 29H25.25C26.2442 28.9988 27.1973 28.6033 27.9003 27.9003C28.6033 27.1973 28.9988 26.2442 29 25.25V14.75C28.9988 13.7558 28.6033 12.8027 27.9003 12.0997C27.1973 11.3967 26.2442 11.0012 25.25 11V11ZM27.5 25.25C27.5 25.8467 27.2629 26.419 26.841 26.841C26.419 27.2629 25.8467 27.5 25.25 27.5H14.75C14.1533 27.5 13.581 27.2629 13.159 26.841C12.7371 26.419 12.5 25.8467 12.5 25.25V14.75C12.5 14.1533 12.7371 13.581 13.159 13.159C13.581 12.7371 14.1533 12.5 14.75 12.5H25.25C25.8467 12.5 26.419 12.7371 26.841 13.159C27.2629 13.581 27.5 14.1533 27.5 14.75V25.25Z" fill="#29E33C"/>
<path d="M17.9996 22.9393L15.0604 20.0001C14.9197 19.8595 14.729 19.7805 14.5301 19.7805C14.3312 19.7805 14.1405 19.8595 13.9999 20.0001C13.8593 20.1407 13.7803 20.3315 13.7803 20.5303C13.7803 20.7292 13.8593 20.9199 13.9999 21.0606L16.9391 23.9998C17.0784 24.1392 17.2438 24.2497 17.4258 24.3252C17.6079 24.4006 17.803 24.4394 18 24.4394C18.197 24.4394 18.3921 24.4006 18.5742 24.3252C18.7562 24.2497 18.9216 24.1392 19.0609 23.9998L25.9999 17.0609C26.1405 16.9202 26.2195 16.7295 26.2195 16.5306C26.2195 16.3317 26.1405 16.141 25.9999 16.0004C25.8592 15.8597 25.6685 15.7808 25.4696 15.7808C25.2707 15.7808 25.08 15.8597 24.9394 16.0004L17.9996 22.9393Z" fill="#29E33C"/>
</g>
<defs>
<clipPath id="clip0_5431_6477">
<rect width="18" height="18" fill="white" transform="translate(11 11)"/>
</clipPath>
</defs>
</svg>
