<svg width="40" height="40" viewBox="0 0 40 40" fill="none" xmlns="http://www.w3.org/2000/svg">
<g id="Group 35457">
<circle id="Ellipse 803" cx="20" cy="20" r="20" fill="#061D95" fill-opacity="0.05"/>
<path id="Vector" d="M25.25 12.6364H20.354C20.238 12.6372 20.1234 12.6092 20.0187 12.5545L17.6518 11.2585C17.3393 11.0888 16.9951 11.0003 16.646 11H14.75C13.7558 11.0013 12.8027 11.4327 12.0997 12.1996C11.3967 12.9665 11.0012 14.0063 11 15.0909V24.9091C11.0012 25.9937 11.3967 27.0335 12.0997 27.8004C12.8027 28.5673 13.7558 28.9987 14.75 29H25.25C26.2442 28.9987 27.1973 28.5673 27.9003 27.8004C28.6033 27.0335 28.9988 25.9937 29 24.9091V16.7273C28.9988 15.6427 28.6033 14.6029 27.9003 13.836C27.1973 13.0691 26.2442 12.6377 25.25 12.6364ZM14.75 12.6364H16.646C16.762 12.6355 16.8766 12.6635 16.9812 12.7182L19.3482 14.0101C19.6604 14.1812 20.0047 14.2711 20.354 14.2727H25.25C25.6985 14.2735 26.1366 14.4205 26.508 14.6949C26.8794 14.9693 27.1671 15.3585 27.3342 15.8125L12.5 15.9042V15.0909C12.5 14.4399 12.7371 13.8156 13.159 13.3553C13.581 12.895 14.1533 12.6364 14.75 12.6364ZM25.25 27.3636H14.75C14.1533 27.3636 13.581 27.105 13.159 26.6447C12.7371 26.1844 12.5 25.5601 12.5 24.9091V17.5405L27.5 17.4481V24.9091C27.5 25.5601 27.2629 26.1844 26.841 26.6447C26.419 27.105 25.8467 27.3636 25.25 27.3636Z" fill="#061D95"/>
</g>
</svg>
