<svg width="20" height="21" viewBox="0 0 20 21" fill="none" xmlns="http://www.w3.org/2000/svg">
<g id="Google" clip-path="url(#clip0_5853_5301)">
<path id="Vector" d="M19.9895 10.8813C19.9895 10.0428 19.9214 9.43093 19.7742 8.79639H10.1992V12.581H15.8195C15.7062 13.5215 15.0943 14.9379 13.7346 15.8897L13.7155 16.0164L16.7429 18.3617L16.9527 18.3827C18.8789 16.6036 19.9895 13.9861 19.9895 10.8813Z" fill="#4285F4"/>
<path id="Vector_2" d="M10.1993 20.8531C12.9527 20.8531 15.2643 19.9465 16.9527 18.3828L13.7346 15.8899C12.8734 16.4905 11.7176 16.9097 10.1993 16.9097C7.50242 16.9097 5.21352 15.1308 4.39759 12.6719L4.27799 12.682L1.13003 15.1183L1.08887 15.2327C2.76588 18.5641 6.2106 20.8531 10.1993 20.8531Z" fill="#34A853"/>
<path id="Vector_3" d="M4.39748 12.6718C4.18219 12.0373 4.05759 11.3573 4.05759 10.6548C4.05759 9.95225 4.18219 9.2724 4.38615 8.63786L4.38045 8.50271L1.19304 6.02734L1.08876 6.07695C0.397576 7.45938 0.000976562 9.0118 0.000976562 10.6548C0.000976562 12.2979 0.397576 13.8502 1.08876 15.2326L4.39748 12.6718Z" fill="#FBBC05"/>
<path id="Vector_4" d="M10.1993 4.39981C12.1142 4.39981 13.406 5.22699 14.1425 5.91825L17.0207 3.10807C15.253 1.46503 12.9527 0.456543 10.1993 0.456543C6.21061 0.456543 2.76588 2.74545 1.08887 6.07682L4.38626 8.63773C5.21352 6.17884 7.50243 4.39981 10.1993 4.39981Z" fill="#EB4335"/>
</g>
<defs>
<clipPath id="clip0_5853_5301">
<rect width="20" height="20.4666" fill="white" transform="translate(0 0.456543)"/>
</clipPath>
</defs>
</svg>
