<svg width="110" height="30" viewBox="0 0 110 30" fill="none" xmlns="http://www.w3.org/2000/svg">
<g clip-path="url(#clip0_5444_39984)">
<path d="M9.84513 13.2887C11.7485 13.2887 13.2915 11.7457 13.2915 9.84233C13.2915 7.93897 11.7485 6.396 9.84513 6.396C7.94178 6.396 6.3988 7.93897 6.3988 9.84233C6.3988 11.7457 7.94178 13.2887 9.84513 13.2887Z" fill="#E93223"/>
<path d="M25.8781 13.2887C27.7814 13.2887 29.3244 11.7457 29.3244 9.84233C29.3244 7.93897 27.7814 6.396 25.8781 6.396C23.9747 6.396 22.4318 7.93897 22.4318 9.84233C22.4318 11.7457 23.9747 13.2887 25.8781 13.2887Z" fill="#E93223"/>
<path d="M17.8605 27.3292C19.7639 27.3292 21.3068 25.7862 21.3068 23.8829C21.3068 21.9795 19.7639 20.4365 17.8605 20.4365C15.9572 20.4365 14.4142 21.9795 14.4142 23.8829C14.4142 25.7862 15.9572 27.3292 17.8605 27.3292Z" fill="#E93223"/>
<path d="M34.0834 9.9182C33.5461 9.8047 32.9857 9.90106 32.5172 10.1875C32.0487 10.474 31.7075 10.9288 31.5636 11.4588C31.178 12.8327 30.3074 14.0203 29.1131 14.8014C27.9189 15.5825 26.482 15.9042 25.0687 15.7068C23.6554 15.5095 22.3615 14.8065 21.4269 13.7282C20.4923 12.6498 19.9803 11.2692 19.9858 9.84223C19.981 9.06715 20.1303 8.29884 20.4248 7.58189C20.7193 6.86493 21.1533 6.21361 21.7015 5.66569C22.4148 4.95163 23.299 4.43213 24.2699 4.15673C24.7999 4.01284 25.2548 3.67164 25.5412 3.2031C25.8277 2.73457 25.924 2.17419 25.8105 1.63688C25.7467 1.35964 25.6275 1.09817 25.46 0.868181C25.2926 0.638194 25.0803 0.444439 24.8361 0.298561C24.5918 0.152683 24.3206 0.0576946 24.0387 0.0193038C23.7568 -0.0190871 23.4701 -8.72174e-05 23.1957 0.0751614C22.1442 0.366535 21.1466 0.825457 20.2411 1.43428L20.2074 1.45749C19.5076 1.94543 18.6731 2.20299 17.8201 2.19429C16.9671 2.18559 16.138 1.91106 15.4483 1.40895L15.3597 1.34986C14.485 0.784465 13.5282 0.357359 12.5233 0.0836031C12.2502 0.00986614 11.9651 -0.00821854 11.6849 0.0304238C11.4046 0.0690662 11.135 0.163647 10.8921 0.308545C10.6492 0.453443 10.4378 0.645701 10.2707 0.873893C10.1035 1.10209 9.98392 1.36155 9.91902 1.63688C9.80605 2.17415 9.90263 2.73428 10.189 3.20269C10.4754 3.6711 10.9299 4.01239 11.4596 4.15673C12.4313 4.4318 13.3163 4.95132 14.0301 5.66569C14.6716 6.30506 15.1575 7.08332 15.4503 7.94035C15.7431 8.79739 15.835 9.71025 15.7189 10.6084C15.6027 11.5066 15.2817 12.3661 14.7806 13.1205C14.2795 13.8749 13.6116 14.504 12.8287 14.9593C12.0458 15.4145 11.1686 15.6837 10.2651 15.746C9.3616 15.8084 8.45584 15.6622 7.6178 15.3188C6.77976 14.9754 6.03187 14.4439 5.43189 13.7655C4.83192 13.0871 4.39591 12.2798 4.15755 11.4061C4.00922 10.8648 3.65196 10.4046 3.16436 10.1268C2.67676 9.84897 2.09875 9.77621 1.5575 9.92453C1.01625 10.0729 0.556093 10.4301 0.278254 10.9177C0.000415352 11.4053 -0.0723444 11.9833 0.0759816 12.5246C0.458633 13.9163 1.13429 15.2103 2.0577 16.3197C2.9811 17.4291 4.13092 18.3283 5.43014 18.9572C6.18663 19.3119 6.8164 19.8898 7.2348 20.613C7.6532 21.3362 7.84018 22.1702 7.7706 23.0029C7.74528 23.2941 7.73262 23.5896 7.73262 23.8871C7.73318 25.6438 8.18987 27.3701 9.05797 28.8973C9.20068 29.1482 9.39335 29.3672 9.62408 29.5407C9.85481 29.7142 10.1187 29.8386 10.3994 29.906C10.6801 29.9735 10.9716 29.9826 11.256 29.9329C11.5404 29.8832 11.8115 29.7756 12.0527 29.6169C12.499 29.3099 12.8134 28.8462 12.9335 28.3179C13.0535 27.7896 12.9704 27.2355 12.7006 26.7658C12.1982 25.8664 11.9397 24.8513 11.9506 23.8212C11.9616 22.7911 12.2417 21.7817 12.7631 20.8932C13.2845 20.0048 14.0291 19.268 14.9231 18.7561C15.8171 18.2442 16.8293 17.9749 17.8595 17.9749C18.8897 17.9749 19.902 18.2442 20.7959 18.7561C21.6899 19.268 22.4345 20.0048 22.9559 20.8932C23.4773 21.7817 23.7574 22.7911 23.7684 23.8212C23.7793 24.8513 23.5208 25.8664 23.0184 26.7658C22.7534 27.2269 22.6686 27.7698 22.7805 28.2898C22.8924 28.8097 23.1929 29.2698 23.6241 29.5811C23.8648 29.7485 24.1377 29.8639 24.4254 29.92C24.7131 29.9761 25.0094 29.9717 25.2953 29.9069C25.5812 29.8422 25.8505 29.7186 26.086 29.5441C26.3215 29.3695 26.5181 29.1478 26.6632 28.8931C27.5313 27.3659 27.9879 25.6395 27.9885 23.8829C27.9885 23.5853 27.9758 23.2899 27.9505 22.9986C27.882 22.167 28.0692 21.3342 28.4871 20.6119C28.905 19.8896 29.5337 19.3122 30.2889 18.9572C31.3071 18.4652 32.2347 17.8044 33.0324 17.0029C34.2765 15.7616 35.1768 14.2185 35.6451 12.5246C35.7191 12.2508 35.7371 11.9649 35.6981 11.684C35.6591 11.403 35.5638 11.1329 35.418 10.8896C35.2723 10.6463 35.0789 10.4349 34.8496 10.268C34.6203 10.1011 34.3597 9.98213 34.0834 9.9182Z" fill="#E93223"/>
<path d="M47.8751 21.7806C47.2412 21.7882 46.613 21.6601 46.0327 21.4049C45.479 21.1554 44.9816 20.7964 44.5701 20.3497C43.7256 19.4454 43.2583 18.2526 43.2638 17.0153C43.2537 16.19 43.4541 15.3757 43.8463 14.6495C44.2237 13.947 44.7836 13.3593 45.4671 12.9485C46.1923 12.518 47.0234 12.2987 47.8666 12.3153C48.6648 12.3004 49.4517 12.5048 50.1417 12.9063C50.7798 13.2783 51.2899 13.8354 51.6042 14.5038L50.4393 14.8689C50.1886 14.4069 49.8126 14.0251 49.3545 13.7673C48.8841 13.5017 48.352 13.3648 47.8118 13.3705C47.2168 13.3659 46.633 13.5321 46.1298 13.8496C45.6205 14.168 45.2042 14.615 44.9226 15.1454C44.6244 15.7247 44.4688 16.3669 44.4688 17.0184C44.4688 17.67 44.6244 18.3121 44.9226 18.8914C45.2103 19.4321 45.6281 19.8926 46.1382 20.2315C46.6348 20.5605 47.2182 20.7339 47.8139 20.7296C48.2084 20.7309 48.5997 20.6593 48.9683 20.5186C49.3238 20.3871 49.6526 20.1927 49.9391 19.9445C50.192 19.7381 50.3839 19.4667 50.4941 19.1595L51.676 19.514C51.5004 19.9613 51.2212 20.3606 50.8613 20.679C50.4694 21.0323 50.0139 21.308 49.5191 21.4915C48.9931 21.6864 48.4361 21.7843 47.8751 21.7806Z" fill="#222222"/>
<path d="M56.4097 21.7808C55.782 21.7875 55.1602 21.6594 54.5863 21.4052C54.039 21.1614 53.5466 20.8097 53.1385 20.371C52.7326 19.9314 52.4127 19.4196 52.1952 18.8621C51.9722 18.2889 51.8591 17.679 51.8617 17.064C51.857 16.4379 51.9701 15.8164 52.1952 15.2321C52.4136 14.6734 52.7374 14.1618 53.1491 13.7253C53.5596 13.2862 54.0541 12.9338 54.6032 12.6891C55.1777 12.4341 55.8002 12.3053 56.4287 12.3113C57.0553 12.3042 57.6759 12.4331 58.2479 12.6891C58.7938 12.9361 59.2858 13.2882 59.6956 13.7253C60.1059 14.1624 60.429 14.6739 60.6474 15.2321C60.8735 15.8162 60.9866 16.4378 60.9809 17.064C60.9847 17.6791 60.8715 18.2893 60.6474 18.8621C60.4299 19.4196 60.11 19.9314 59.7041 20.371C59.2855 20.824 58.7761 21.1836 58.2092 21.4265C57.6423 21.6694 57.0306 21.7901 56.4139 21.7808H56.4097ZM53.0773 17.083C53.0695 17.7265 53.2241 18.3617 53.5268 18.9296C53.8087 19.465 54.2256 19.9175 54.7361 20.2423C55.2356 20.5615 55.817 20.7287 56.4097 20.7235C57.0043 20.729 57.5873 20.5587 58.0854 20.2339C58.5992 19.8986 59.0184 19.4372 59.3031 18.8937C59.6038 18.3232 59.761 17.6879 59.761 17.0429C59.761 16.3979 59.6038 15.7626 59.3031 15.192C59.0167 14.652 58.5977 14.1938 58.0854 13.8604C57.5873 13.5355 57.0043 13.3652 56.4097 13.3707C55.8159 13.3655 55.2348 13.5423 54.7446 13.8773C54.2233 14.2321 53.7981 14.7107 53.5072 15.2701C53.2162 15.8296 53.0685 16.4525 53.0773 17.083Z" fill="#222222"/>
<path d="M62.0467 8.73193H63.2454V19.588C63.2454 20.0495 63.3277 20.3513 63.4923 20.4934C63.6593 20.635 63.8727 20.7101 64.0917 20.7044C64.3047 20.7045 64.5171 20.6804 64.7248 20.6326C64.9358 20.5862 65.1194 20.5398 65.2714 20.4934L65.4824 21.462C65.2187 21.5685 64.9441 21.6456 64.6636 21.6921C64.3854 21.7461 64.1028 21.7751 63.8194 21.7786C63.581 21.7954 63.3418 21.7606 63.1181 21.6765C62.8943 21.5925 62.6914 21.4611 62.5231 21.2914C62.3548 21.1217 62.2251 20.9177 62.1429 20.6933C62.0607 20.4688 62.0278 20.2293 62.0467 19.9911V8.73193Z" fill="#222222"/>
<path d="M69.7243 21.7808C69.1108 21.7876 68.5027 21.6656 67.9392 21.4228C67.3758 21.1799 66.8695 20.8216 66.4532 20.371C66.0466 19.9318 65.7265 19.4199 65.5098 18.862C65.285 18.2894 65.1711 17.6792 65.1742 17.064C65.1692 16.4376 65.283 15.816 65.5098 15.2321C65.7268 14.6731 66.05 14.1614 66.4616 13.7253C66.8726 13.2866 67.3669 12.9343 67.9157 12.689C68.4902 12.4342 69.1127 12.3054 69.7412 12.3113C70.367 12.3048 70.9869 12.4337 71.5583 12.689C72.1036 12.9361 72.5948 13.2882 73.0039 13.7253C73.4149 14.1618 73.7381 14.6734 73.9557 15.2321C74.1811 15.8163 74.2935 16.4379 74.2871 17.064C74.2902 17.6792 74.1763 18.2894 73.9515 18.862C73.7378 19.4185 73.4222 19.9303 73.0208 20.371C72.6024 20.8237 72.0934 21.1831 71.5269 21.426C70.9604 21.6689 70.3491 21.7898 69.7328 21.7808H69.7243ZM66.392 17.0829C66.3834 17.7263 66.5372 18.3615 66.8394 18.9296C67.1219 19.4645 67.5386 19.9169 68.0486 20.2423C68.5487 20.5617 69.1309 20.7289 69.7243 20.7234C70.3182 20.7287 70.9005 20.5584 71.3979 20.2338C71.9117 19.8986 72.331 19.4372 72.6156 18.8937C72.9163 18.3231 73.0735 17.6878 73.0735 17.0428C73.0735 16.3979 72.9163 15.7626 72.6156 15.192C72.3292 14.652 71.9102 14.1937 71.3979 13.8603C70.9005 13.5358 70.3182 13.3654 69.7243 13.3707C69.1299 13.3654 68.5481 13.5422 68.0571 13.8772C67.5366 14.2327 67.1122 14.7115 66.8216 15.2708C66.5311 15.8302 66.3835 16.4527 66.392 17.0829Z" fill="#222222"/>
<path d="M83.0369 21.6054H81.8382V16.5067C81.8382 15.4317 81.6792 14.646 81.3612 14.1493C81.0433 13.6526 80.5438 13.405 79.8628 13.4064C79.3783 13.4091 78.9012 13.5255 78.47 13.7462C78.0109 13.9741 77.6008 14.2895 77.2628 14.6748C76.9177 15.0606 76.6612 15.5173 76.5115 16.0128V21.6054H75.3127V12.4525H76.3975V14.5397C76.6459 14.0938 76.9751 13.6981 77.3683 13.3727C77.7727 13.0368 78.2317 12.7727 78.7253 12.5918C79.228 12.4061 79.7596 12.3111 80.2955 12.3111C80.741 12.2987 81.1829 12.3951 81.5828 12.5918C81.9318 12.7766 82.2236 13.0532 82.427 13.3917C82.6532 13.7751 82.8084 14.1962 82.885 14.6347C82.9841 15.1699 83.0314 15.7134 83.0264 16.2576L83.0369 21.6054Z" fill="#222222"/>
<path d="M88.5747 21.7806C87.9427 21.7871 87.3167 21.6583 86.7386 21.4029C86.1854 21.1599 85.6872 20.8074 85.274 20.3667C84.8607 19.9254 84.5348 19.4098 84.3137 18.8472C84.0815 18.2601 83.9647 17.6339 83.9697 17.0026C83.9614 16.1832 84.1649 15.3755 84.5606 14.6579C84.9449 13.9554 85.5076 13.3665 86.192 12.9506C86.9039 12.5216 87.7225 12.3021 88.5536 12.3175C89.3907 12.2988 90.2151 12.5247 90.9257 12.9675C91.5949 13.3907 92.1442 13.9786 92.5212 14.6748C92.9109 15.386 93.1115 16.1854 93.1037 16.9963V17.2685C93.1059 17.3393 93.1002 17.4101 93.0868 17.4796H85.2233C85.2704 18.0972 85.4604 18.6955 85.7784 19.227C86.0787 19.7241 86.497 20.1394 86.9961 20.4363C87.4935 20.7275 88.0617 20.8757 88.638 20.8647C89.2312 20.863 89.8136 20.7051 90.3263 20.4068C90.8218 20.1416 91.2158 19.7202 91.447 19.208L92.4874 19.4887C92.2866 19.9399 91.9915 20.3428 91.6221 20.6706C91.2238 21.0292 90.7603 21.3079 90.2567 21.4915C89.7175 21.6865 89.148 21.7844 88.5747 21.7806ZM85.1874 16.5932H91.9767C91.9445 15.9759 91.7596 15.3762 91.4385 14.8479C91.1399 14.3585 90.7215 13.9532 90.2229 13.6703C89.7204 13.3867 89.1517 13.241 88.5747 13.2482C88.0002 13.2402 87.4341 13.3859 86.9349 13.6703C86.4384 13.9575 86.0224 14.3655 85.7256 14.8563C85.4088 15.3834 85.2242 15.9793 85.1874 16.5932Z" fill="#222222"/>
<path d="M97.9365 21.7806C97.3053 21.7867 96.68 21.658 96.1026 21.4029C95.5503 21.1593 95.0529 20.8069 94.64 20.3666C94.2268 19.925 93.9003 19.4095 93.6777 18.8471C93.4472 18.2597 93.3311 17.6336 93.3358 17.0026C93.3277 16.1835 93.5305 15.3761 93.9246 14.6579C94.3102 13.9563 94.8726 13.3677 95.556 12.9506C96.2688 12.5219 97.088 12.3025 97.9197 12.3175C98.7567 12.299 99.581 12.5249 100.292 12.9675C100.96 13.3913 101.51 13.979 101.887 14.6748C102.277 15.386 102.478 16.1853 102.47 16.9963V17.2685C102.473 17.3394 102.466 17.4104 102.451 17.4796H94.5873C94.6333 18.0974 94.8234 18.6958 95.1423 19.227C95.4427 19.7241 95.8609 20.1394 96.36 20.4363C96.8517 20.7323 97.4154 20.8871 97.9893 20.8837C98.5875 20.8846 99.1753 20.7266 99.6924 20.4257C100.188 20.1612 100.581 19.7395 100.811 19.227L101.851 19.5077C101.652 19.9591 101.358 20.3623 100.988 20.6895C100.585 21.0428 100.118 21.315 99.6122 21.4915C99.075 21.6857 98.5078 21.7836 97.9365 21.7806ZM94.5472 16.5932H101.336C101.304 15.9758 101.119 15.3761 100.798 14.8479C100.499 14.3591 100.081 13.954 99.5827 13.6702C99.0794 13.3864 98.51 13.2407 97.9323 13.2482C97.3579 13.2402 96.7917 13.3859 96.2925 13.6702C95.796 13.9567 95.3805 14.3649 95.0853 14.8563C94.7667 15.3826 94.5819 15.9789 94.5472 16.5932Z" fill="#222222"/>
<path d="M106.349 21.7806C105.634 21.787 104.925 21.6618 104.255 21.4113C103.612 21.1722 103.034 20.7855 102.567 20.2822L103.061 19.438C103.513 19.8805 104.041 20.2379 104.62 20.4933C105.149 20.7121 105.716 20.8233 106.288 20.8204C106.898 20.8492 107.503 20.7027 108.033 20.3983C108.245 20.272 108.419 20.0909 108.537 19.874C108.655 19.6572 108.713 19.4126 108.704 19.1658C108.716 19.0096 108.692 18.8529 108.636 18.7069C108.579 18.5608 108.491 18.4293 108.377 18.3216C108.102 18.0996 107.784 17.9385 107.442 17.8489C107.037 17.7265 106.552 17.5949 105.988 17.4542C105.443 17.311 104.909 17.1261 104.392 16.9013C104.009 16.7459 103.674 16.4918 103.422 16.1648C103.191 15.8214 103.077 15.413 103.097 14.9998C103.077 14.4709 103.235 13.9507 103.546 13.5225C103.866 13.1152 104.294 12.8053 104.781 12.6277C105.341 12.4159 105.936 12.3113 106.534 12.3196C107.174 12.3086 107.809 12.4226 108.404 12.6551C108.918 12.8518 109.377 13.1696 109.742 13.5816L109.162 14.3941C108.844 14.0226 108.442 13.7331 107.989 13.55C107.508 13.3616 106.996 13.2685 106.48 13.2756C106.116 13.2742 105.755 13.3246 105.405 13.4254C105.085 13.5095 104.793 13.6787 104.561 13.9151C104.333 14.172 104.215 14.5088 104.234 14.8521C104.217 15.1288 104.305 15.4017 104.481 15.6161C104.689 15.8233 104.943 15.9793 105.222 16.0719C105.551 16.1943 105.957 16.3252 106.44 16.4645C107.132 16.653 107.737 16.8429 108.255 17.0343C108.707 17.1867 109.118 17.4417 109.455 17.7793C109.755 18.1356 109.906 18.5935 109.877 19.0582C109.893 19.4473 109.812 19.8343 109.641 20.1843C109.47 20.5343 109.215 20.8363 108.898 21.0631C108.257 21.5428 107.407 21.782 106.349 21.7806Z" fill="#222222"/>
</g>
<defs>
<clipPath id="clip0_5444_39984">
<rect width="109.875" height="29.9618" fill="white"/>
</clipPath>
</defs>
</svg>
