<svg width="38" height="38" viewBox="0 0 38 38" fill="none" xmlns="http://www.w3.org/2000/svg">
<g id="vuesax/bold/message">
<g id="message">
<path id="Vector" d="M26.9167 3.16602H11.0834C6.71341 3.16602 3.16675 6.69685 3.16675 11.051V20.5193V22.1027C3.16675 26.4568 6.71341 29.9877 11.0834 29.9877H13.4584C13.8859 29.9877 14.4559 30.2727 14.7251 30.621L17.1001 33.7718C18.1451 35.1652 19.8551 35.1652 20.9001 33.7718L23.2751 30.621C23.5759 30.2252 24.0509 29.9877 24.5417 29.9877H26.9167C31.2867 29.9877 34.8334 26.4568 34.8334 22.1027V11.051C34.8334 6.69685 31.2867 3.16602 26.9167 3.16602ZM12.6667 18.9993C11.7801 18.9993 11.0834 18.2868 11.0834 17.416C11.0834 16.5452 11.7959 15.8327 12.6667 15.8327C13.5376 15.8327 14.2501 16.5452 14.2501 17.416C14.2501 18.2868 13.5534 18.9993 12.6667 18.9993ZM19.0001 18.9993C18.1134 18.9993 17.4167 18.2868 17.4167 17.416C17.4167 16.5452 18.1292 15.8327 19.0001 15.8327C19.8709 15.8327 20.5834 16.5452 20.5834 17.416C20.5834 18.2868 19.8867 18.9993 19.0001 18.9993ZM25.3334 18.9993C24.4467 18.9993 23.7501 18.2868 23.7501 17.416C23.7501 16.5452 24.4626 15.8327 25.3334 15.8327C26.2042 15.8327 26.9167 16.5452 26.9167 17.416C26.9167 18.2868 26.2201 18.9993 25.3334 18.9993Z" fill="white"/>
</g>
</g>
</svg>
