<svg width="20" height="20" viewBox="0 0 20 20" fill="none" xmlns="http://www.w3.org/2000/svg">
<g id="mtn-new-logo 2">
<path id="Vector" d="M0 0H20V20H0V0Z" fill="#FFC403"/>
<path id="Vector_2" d="M8.89024 8.81934V11.1023H8.26585V9.82178L7.84877 10.4388H7.52194L7.06341 9.82178V11.1023H6.49268V8.81934H7.06828L7.72682 9.71446L8.31707 8.81934H8.89024ZM9.07072 9.33641V8.81934H11.2024V9.33641H10.4561V11.1023H9.8195V9.33641H9.07072ZM13.5512 8.81934V11.1023H13.0268L11.9537 9.79738V11.1023H11.3829V8.81934H11.9512L12.978 10.0779V8.81934H13.5512Z" fill="black"/>
<path id="Vector_3" d="M9.99998 13.4878C8.15607 13.4878 6.41705 13.1439 5.10485 12.5171C3.73168 11.861 2.97559 10.9683 2.97559 10C2.97559 9.03172 3.73168 8.13904 5.10485 7.48294C6.41705 6.85611 8.15607 6.51221 9.99998 6.51221C11.8439 6.51221 13.5829 6.85611 14.8951 7.48294C16.2683 8.13904 17.0244 9.03172 17.0244 10C17.0244 10.9683 16.2683 11.861 14.8951 12.5171C13.5829 13.1439 11.8439 13.4878 9.99998 13.4878ZM9.99998 7.02684C8.22924 7.02684 6.57071 7.35367 5.32681 7.94879C4.14388 8.51465 3.49022 9.24391 3.49022 10.0025C3.49022 10.761 4.14144 11.4903 5.32681 12.0537C6.57071 12.6488 8.23168 12.9756 9.99998 12.9756C11.7683 12.9756 13.4292 12.6488 14.6731 12.0537C15.8561 11.4903 16.5097 10.7585 16.5097 10.0025C16.5097 9.24635 15.8585 8.51465 14.6731 7.95123C13.4292 7.35367 11.7707 7.02684 9.99998 7.02684Z" fill="black"/>
</g>
</svg>
