<svg width="40" height="40" viewBox="0 0 40 40" fill="none" xmlns="http://www.w3.org/2000/svg">
<circle cx="20" cy="20" r="20" fill="#E93223" fill-opacity="0.05"/>
<g clip-path="url(#clip0_5431_6469)">
<path d="M20 11C17.7841 11.0016 15.6471 11.8225 14 13.3048V11.75C14 11.5511 13.921 11.3603 13.7803 11.2197C13.6397 11.079 13.4489 11 13.25 11C13.0511 11 12.8603 11.079 12.7197 11.2197C12.579 11.3603 12.5 11.5511 12.5 11.75V14C12.5 14.5967 12.7371 15.169 13.159 15.591C13.581 16.0129 14.1533 16.25 14.75 16.25H17C17.1989 16.25 17.3897 16.171 17.5303 16.0303C17.671 15.8897 17.75 15.6989 17.75 15.5C17.75 15.3011 17.671 15.1103 17.5303 14.9697C17.3897 14.829 17.1989 14.75 17 14.75H14.75C14.7247 14.7463 14.6997 14.741 14.675 14.7343C15.8971 13.5034 17.5086 12.7348 19.2343 12.5597C20.96 12.3847 22.693 12.814 24.1374 13.7744C25.5818 14.7348 26.6482 16.1667 27.1544 17.8257C27.6606 19.4848 27.5754 21.2681 26.9132 22.8713C26.251 24.4744 25.0529 25.7981 23.5235 26.6163C21.994 27.4345 20.228 27.6965 18.5269 27.3577C16.8257 27.0188 15.2949 26.1 14.1958 24.7581C13.0966 23.4163 12.4973 21.7346 12.5 20C12.5 19.8011 12.421 19.6103 12.2803 19.4697C12.1397 19.329 11.9489 19.25 11.75 19.25C11.5511 19.25 11.3603 19.329 11.2197 19.4697C11.079 19.6103 11 19.8011 11 20C11 21.78 11.5278 23.5201 12.5168 25.0001C13.5057 26.4802 14.9113 27.6337 16.5558 28.3149C18.2004 28.9961 20.01 29.1743 21.7558 28.8271C23.5016 28.4798 25.1053 27.6226 26.364 26.364C27.6226 25.1053 28.4798 23.5016 28.8271 21.7558C29.1743 20.01 28.9961 18.2004 28.3149 16.5558C27.6337 14.9113 26.4802 13.5057 25.0001 12.5168C23.5201 11.5278 21.78 11 20 11V11Z" fill="#E93223"/>
<path d="M20 15.5C19.8011 15.5 19.6103 15.579 19.4697 15.7197C19.329 15.8603 19.25 16.0511 19.25 16.25V20C19.25 20.1989 19.3291 20.3896 19.4698 20.5303L21.7197 22.7803C21.8612 22.9169 22.0507 22.9925 22.2473 22.9908C22.4439 22.989 22.6321 22.9102 22.7711 22.7711C22.9102 22.6321 22.989 22.4439 22.9908 22.2473C22.9925 22.0507 22.9169 21.8612 22.7802 21.7198L20.75 19.6895V16.25C20.75 16.0511 20.671 15.8603 20.5303 15.7197C20.3897 15.579 20.1989 15.5 20 15.5Z" fill="#E93223"/>
</g>
<defs>
<clipPath id="clip0_5431_6469">
<rect width="18" height="18" fill="white" transform="translate(11 11)"/>
</clipPath>
</defs>
</svg>
