<svg width="19" height="23" viewBox="0 0 19 23" fill="none" xmlns="http://www.w3.org/2000/svg">
<g id="logos:paypal">
<path id="Vector" d="M16.116 1.74418C15.0821 0.565763 13.2132 0.0605469 10.8223 0.0605469H3.88332C3.64677 0.0605556 3.41797 0.14495 3.23808 0.298558C3.05818 0.452165 2.93898 0.664909 2.9019 0.898542L0.0126247 19.2231C-0.0448047 19.5844 0.234997 19.9116 0.601239 19.9116H4.88515L5.96102 13.0875L5.92763 13.3012C6.00428 12.8189 6.41682 12.4631 6.90534 12.4631H8.94104C12.9402 12.4631 16.0716 10.8387 16.9863 6.13983C17.0134 6.00086 17.037 5.86559 17.0573 5.73345C16.9418 5.67231 16.9418 5.67231 17.0573 5.73345C17.3297 3.99669 17.0554 2.81449 16.116 1.74418Z" fill="#27346A"/>
<path id="Vector_2" d="M7.60021 5.10781C7.71733 5.05204 7.84542 5.02314 7.97513 5.02322H13.4152C14.0594 5.02322 14.6602 5.06514 15.2093 5.15351C15.363 5.17801 15.5158 5.20726 15.6676 5.24122C15.8828 5.2887 16.0956 5.34682 16.305 5.41536C16.5749 5.50551 16.8263 5.6105 17.0574 5.73345C17.3297 3.99602 17.0554 2.81449 16.116 1.74418C15.0815 0.565763 13.2132 0.0605469 10.8223 0.0605469H3.88273C3.39413 0.0605469 2.97848 0.416253 2.9019 0.898542L0.0126251 19.2224C-0.0448043 19.5843 0.234997 19.9111 0.600646 19.9111H4.88515L7.11725 5.7563C7.1392 5.61717 7.19462 5.48545 7.27875 5.37249C7.36288 5.25952 7.4732 5.16869 7.60021 5.10781Z" fill="#27346A"/>
<path id="Vector_3" d="M16.9863 6.13978C16.0716 10.838 12.9403 12.463 8.94107 12.463H6.90478C6.41625 12.463 6.00364 12.8188 5.92773 13.3012L4.58927 21.7861C4.53926 22.1023 4.78382 22.3889 5.10376 22.3889H8.71499C8.92185 22.3888 9.12191 22.315 9.27918 22.1806C9.43645 22.0462 9.54062 21.8601 9.57294 21.6558L9.60811 21.4718L10.2887 17.1582L10.3326 16.9198C10.3649 16.7155 10.4691 16.5294 10.6263 16.3951C10.7836 16.2607 10.9836 16.1868 11.1905 16.1867H11.7309C15.2291 16.1867 17.9683 14.7655 18.7688 10.6553C19.1029 8.93757 18.93 7.50347 18.0462 6.49616C17.7781 6.19105 17.4452 5.93908 17.0573 5.7334C17.0363 5.86621 17.0135 6.00081 16.9863 6.13978Z" fill="#2790C3"/>
<path id="Vector_4" d="M16.1 5.35158C15.9574 5.30993 15.8134 5.27306 15.6683 5.24102C15.5164 5.20762 15.3635 5.17857 15.21 5.15391C14.6603 5.06495 14.0599 5.02295 13.4151 5.02295H7.97572C7.84591 5.02266 7.71772 5.05181 7.6008 5.10821C7.47365 5.1689 7.3632 5.25968 7.27904 5.37268C7.19487 5.48568 7.13952 5.61749 7.11777 5.7567L5.96161 13.0873L5.92822 13.301C6.00428 12.8187 6.41682 12.4629 6.90541 12.4629H8.94171C12.9408 12.4629 16.0722 10.8385 16.9869 6.13963C17.0141 6.00066 17.037 5.86599 17.058 5.73325C16.8263 5.61097 16.5756 5.50531 16.3056 5.41576C16.2375 5.39317 16.1689 5.37177 16.1001 5.35158" fill="#1F264F"/>
</g>
</svg>
